Rajdhani Express 2013 Hindi Movies HD CAM Rip XviD Best Quality Sample Included ~ rDX

[color=red][b]Screen Shots :[/b][/color]

[b][url]http://myimghosting.serveftp.com/RajdhaniExpressHDCam.html[/url]

[url]http://myimghost.cwahi.net/RajdhaniExpressHDCam.html[/url][/b]

Format                                   : AVI
Format/Info                              : Audio Video Interleave
File size                                : 6.72 MiB
Duration                                 : 1mn 4s
Overall bit rate                         : 875 Kbps
Writing library                          : MPlayer

Video
ID                                       : 0
Format                                   : MPEG-4 Visual
Format profile                           : Advanced Simple@L5
Format settings, BVOP                    : 2
Format settings, QPel                    : No
Format settings, GMC                     : No warppoints
Format settings, Matrix                  : Default (H.263)
Codec ID                                 : XVID
Codec ID/Hint                            : XviD
Duration                                 : 1mn 4s
Bit rate                                 : 789 Kbps
Width                                    : 640 pixels
Height                                   : 272 pixels
Display aspect ratio                     : 2.35:1
Frame rate                               : 25.000 fps
Color space                              : YUV
Chroma subsampling                       : 4:2:0
Bit depth                                : 8 bits
Scan type                                : Progressive
Compression mode                         : Lossy
Bits/(Pixel*Frame)                       : 0.181
Stream size                              : 6.06 MiB (90%)
Writing library                          : XviD 63

Audio
ID                                       : 1
Format                                   : MPEG Audio
Format version                           : Version 1
Format profile                           : Layer 3
Codec ID                                 : 55
Codec ID/Hint                            : MP3
Duration                                 : 1mn 4s
Bit rate mode                            : Constant
Bit rate                                 : 80.0 Kbps
Channel(s)                               : 2 channels
Sampling rate                            : 48.0 KHz
Compression mode                         : Lossy
Stream size                              : 629 KiB (9%)
Alignment                                : Split accross interleaves
Interleave, duration                     : 500 ms (12.49 video frames)
Interleave, preload duration             : 500 ms